<svg xmlns="http://www.w3.org/2000/svg" viewBox="0 0 1600 1000">
  <defs>
    <linearGradient id="campus" x1="0" y1="0" x2="1" y2="1">
      <stop offset="0%" stop-color="#20466e"/>
      <stop offset="100%" stop-color="#c6deef"/>
    </linearGradient>
  </defs>
  <rect width="1600" height="1000" fill="url(#campus)"/>
  <rect x="0" y="620" width="1600" height="380" fill="#20405f"/>
  <rect x="150" y="300" width="380" height="320" fill="#bed3e2" opacity="0.26"/>
  <rect x="620" y="240" width="280" height="380" fill="#d6e7f0" opacity="0.22"/>
  <rect x="990" y="280" width="430" height="340" fill="#c7dceb" opacity="0.25"/>
  <rect x="0" y="730" width="1600" height="18" fill="#d7efff" opacity="0.4"/>
  <path d="M180 760 C480 700 810 820 1120 760 C1320 720 1460 724 1600 740" fill="none" stroke="#d6f0ff" stroke-width="8" opacity="0.24"/>
  <g fill="#eff8ff" opacity="0.32">
    <rect x="230" y="360" width="36" height="36"/>
    <rect x="286" y="360" width="36" height="36"/>
    <rect x="740" y="320" width="36" height="36"/>
    <rect x="1060" y="340" width="36" height="36"/>
    <rect x="1120" y="340" width="36" height="36"/>
  </g>
</svg>
