<svg xmlns="http://www.w3.org/2000/svg" viewBox="0 0 1600 1000">
  <defs>
    <linearGradient id="g3" x1="0" y1="0" x2="0" y2="1">
      <stop offset="0%" stop-color="#17375a"/>
      <stop offset="100%" stop-color="#89acc8"/>
    </linearGradient>
  </defs>
  <rect width="1600" height="1000" fill="url(#g3)"/>
  <rect x="0" y="650" width="1600" height="350" fill="#1b3550"/>
  <rect x="100" y="710" width="1400" height="16" fill="#d0ebff" opacity="0.32"/>
  <rect x="180" y="240" width="20" height="430" fill="#22374d"/>
  <circle cx="190" cy="226" r="30" fill="#ffd7a1"/>
  <rect x="760" y="200" width="20" height="470" fill="#22374d"/>
  <circle cx="770" cy="186" r="30" fill="#ffd7a1"/>
  <rect x="1350" y="250" width="20" height="420" fill="#22374d"/>
  <circle cx="1360" cy="236" r="30" fill="#ffd7a1"/>
  <path d="M0 806 C300 748 520 858 770 806 C1020 752 1260 852 1600 794" fill="none" stroke="#d6f0ff" stroke-width="10" opacity="0.28"/>
  <g stroke="#d6f0ff" stroke-width="6" opacity="0.25">
    <line x1="320" y1="40" x2="290" y2="230"/>
    <line x1="610" y1="0" x2="580" y2="220"/>
    <line x1="970" y1="20" x2="940" y2="230"/>
    <line x1="1210" y1="0" x2="1180" y2="220"/>
  </g>
</svg>
