<svg xmlns="http://www.w3.org/2000/svg" viewBox="0 0 1600 1000">
  <defs>
    <linearGradient id="g1" x1="0" y1="0" x2="1" y2="1">
      <stop offset="0%" stop-color="#1a274d"/>
      <stop offset="52%" stop-color="#905f74"/>
      <stop offset="100%" stop-color="#ffb07a"/>
    </linearGradient>
  </defs>
  <rect width="1600" height="1000" fill="url(#g1)"/>
  <path d="M0 560 C210 500 460 520 660 610 C860 700 1110 730 1600 620 L1600 1000 L0 1000 Z" fill="#2d3550"/>
  <path d="M0 690 C220 650 430 700 620 760 C860 830 1100 820 1600 730 L1600 1000 L0 1000 Z" fill="#1b2237"/>
  <rect x="0" y="740" width="1600" height="18" fill="#f5c689" opacity="0.55"/>
  <rect x="0" y="774" width="1600" height="10" fill="#f5c689" opacity="0.25"/>
  <rect x="1080" y="415" width="22" height="240" fill="#1a2030"/>
  <circle cx="1091" cy="402" r="30" fill="#ffd59a"/>
  <path d="M320 670 C360 550 430 540 475 670" fill="none" stroke="#172033" stroke-width="34" stroke-linecap="round"/>
  <path d="M390 680 C430 540 500 530 550 680" fill="none" stroke="#172033" stroke-width="34" stroke-linecap="round"/>
  <path d="M1280 690 C1330 540 1410 520 1470 690" fill="none" stroke="#172033" stroke-width="34" stroke-linecap="round"/>
</svg>
