<svg xmlns="http://www.w3.org/2000/svg" viewBox="0 0 1600 1000">
  <defs>
    <linearGradient id="city" x1="0" y1="0" x2="1" y2="1">
      <stop offset="0%" stop-color="#081126"/>
      <stop offset="100%" stop-color="#324087"/>
    </linearGradient>
  </defs>
  <rect width="1600" height="1000" fill="url(#city)"/>
  <rect x="0" y="690" width="1600" height="310" fill="#0b132b"/>
  <rect x="170" y="240" width="290" height="450" fill="#1a2655"/>
  <rect x="540" y="280" width="230" height="410" fill="#16214b"/>
  <rect x="860" y="210" width="260" height="480" fill="#1c295a"/>
  <rect x="1200" y="300" width="220" height="390" fill="#192451"/>
  <g fill="#9fe0ff">
    <rect x="220" y="300" width="30" height="30"/>
    <rect x="270" y="300" width="30" height="30"/>
    <rect x="620" y="360" width="30" height="30"/>
    <rect x="940" y="280" width="32" height="32"/>
    <rect x="1260" y="370" width="30" height="30"/>
  </g>
  <g fill="#ff9f7d">
    <rect x="220" y="360" width="30" height="30"/>
    <rect x="320" y="420" width="30" height="30"/>
    <rect x="670" y="420" width="30" height="30"/>
    <rect x="1000" y="340" width="32" height="32"/>
    <rect x="1320" y="430" width="30" height="30"/>
  </g>
  <path d="M0 810 C240 760 420 860 760 802 C1020 758 1300 842 1600 790" fill="none" stroke="#7cb0ff" stroke-width="8" opacity="0.3"/>
</svg>
