<svg xmlns="http://www.w3.org/2000/svg" viewBox="0 0 1600 1000">
  <defs>
    <linearGradient id="metro" x1="0" y1="0" x2="0" y2="1">
      <stop offset="0%" stop-color="#0b1430"/>
      <stop offset="100%" stop-color="#2a3a78"/>
    </linearGradient>
  </defs>
  <rect width="1600" height="1000" fill="url(#metro)"/>
  <rect x="0" y="760" width="1600" height="240" fill="#0a1227"/>
  <rect x="130" y="420" width="1340" height="220" rx="40" fill="#1b2758"/>
  <rect x="190" y="470" width="260" height="110" rx="18" fill="#2d3d7b"/>
  <rect x="510" y="470" width="260" height="110" rx="18" fill="#2d3d7b"/>
  <rect x="830" y="470" width="260" height="110" rx="18" fill="#2d3d7b"/>
  <rect x="1150" y="470" width="260" height="110" rx="18" fill="#2d3d7b"/>
  <rect x="150" y="640" width="1300" height="24" rx="12" fill="#ff79b7"/>
  <rect x="150" y="676" width="1300" height="14" rx="7" fill="#86beff"/>
  <circle cx="240" cy="708" r="18" fill="#ffdc9f"/>
  <circle cx="1360" cy="708" r="18" fill="#ffdc9f"/>
  <circle cx="260" cy="230" r="12" fill="#ffffff" opacity="0.72"/>
  <circle cx="590" cy="160" r="10" fill="#ffffff" opacity="0.55"/>
  <circle cx="1120" cy="200" r="14" fill="#ffffff" opacity="0.64"/>
</svg>
